<mxfile host="app.diagrams.net" modified="2022-02-16T12:31:28.751Z" agent="5.0 (X11)" etag="rLdwG_2V3ONe5RSvfPZ_" version="16.5.6" type="github">
  <diagram id="C5RBs43oDa-KdzZeNtuy" name="Page-1">
    <mxGraphModel dx="813" dy="417" grid="1" gridSize="10" guides="1" tooltips="1" connect="1" arrows="1" fold="1" page="1" pageScale="1" pageWidth="827" pageHeight="1169" math="0" shadow="0">
      <root>
        <mxCell id="WIyWlLk6GJQsqaUBKTNV-0" />
        <mxCell id="WIyWlLk6GJQsqaUBKTNV-1" parent="WIyWlLk6GJQsqaUBKTNV-0" />
        <mxCell id="N1oyZwq5Z6-K_-6cKd1b-2" style="edgeStyle=orthogonalEdgeStyle;rounded=0;orthogonalLoop=1;jettySize=auto;html=1;entryX=0.5;entryY=0;entryDx=0;entryDy=0;" edge="1" parent="WIyWlLk6GJQsqaUBKTNV-1" source="N1oyZwq5Z6-K_-6cKd1b-0" target="N1oyZwq5Z6-K_-6cKd1b-1">
          <mxGeometry relative="1" as="geometry" />
        </mxCell>
        <mxCell id="N1oyZwq5Z6-K_-6cKd1b-0" value="Run the .py script" style="rounded=0;whiteSpace=wrap;html=1;" vertex="1" parent="WIyWlLk6GJQsqaUBKTNV-1">
          <mxGeometry x="40" y="40" width="120" height="60" as="geometry" />
        </mxCell>
        <mxCell id="N1oyZwq5Z6-K_-6cKd1b-11" style="edgeStyle=orthogonalEdgeStyle;rounded=0;orthogonalLoop=1;jettySize=auto;html=1;entryX=0;entryY=0.5;entryDx=0;entryDy=0;strokeColor=default;" edge="1" parent="WIyWlLk6GJQsqaUBKTNV-1" source="N1oyZwq5Z6-K_-6cKd1b-1" target="N1oyZwq5Z6-K_-6cKd1b-3">
          <mxGeometry relative="1" as="geometry" />
        </mxCell>
        <mxCell id="N1oyZwq5Z6-K_-6cKd1b-12" style="edgeStyle=orthogonalEdgeStyle;rounded=0;orthogonalLoop=1;jettySize=auto;html=1;entryX=0;entryY=0.5;entryDx=0;entryDy=0;strokeColor=default;" edge="1" parent="WIyWlLk6GJQsqaUBKTNV-1" source="N1oyZwq5Z6-K_-6cKd1b-1" target="N1oyZwq5Z6-K_-6cKd1b-5">
          <mxGeometry relative="1" as="geometry" />
        </mxCell>
        <mxCell id="N1oyZwq5Z6-K_-6cKd1b-13" style="edgeStyle=orthogonalEdgeStyle;rounded=0;orthogonalLoop=1;jettySize=auto;html=1;entryX=0;entryY=0.5;entryDx=0;entryDy=0;strokeColor=default;" edge="1" parent="WIyWlLk6GJQsqaUBKTNV-1" source="N1oyZwq5Z6-K_-6cKd1b-1" target="N1oyZwq5Z6-K_-6cKd1b-8">
          <mxGeometry relative="1" as="geometry" />
        </mxCell>
        <mxCell id="N1oyZwq5Z6-K_-6cKd1b-14" style="edgeStyle=orthogonalEdgeStyle;rounded=0;orthogonalLoop=1;jettySize=auto;html=1;entryX=0;entryY=0.5;entryDx=0;entryDy=0;strokeColor=default;" edge="1" parent="WIyWlLk6GJQsqaUBKTNV-1" source="N1oyZwq5Z6-K_-6cKd1b-1" target="N1oyZwq5Z6-K_-6cKd1b-9">
          <mxGeometry relative="1" as="geometry" />
        </mxCell>
        <mxCell id="N1oyZwq5Z6-K_-6cKd1b-1" value="Topic menu" style="rounded=0;whiteSpace=wrap;html=1;" vertex="1" parent="WIyWlLk6GJQsqaUBKTNV-1">
          <mxGeometry x="40" y="160" width="120" height="160" as="geometry" />
        </mxCell>
        <mxCell id="N1oyZwq5Z6-K_-6cKd1b-3" value="1. Create/Edit Nodes" style="rounded=1;whiteSpace=wrap;html=1;" vertex="1" parent="WIyWlLk6GJQsqaUBKTNV-1">
          <mxGeometry x="240" y="160" width="160" height="40" as="geometry" />
        </mxCell>
        <mxCell id="N1oyZwq5Z6-K_-6cKd1b-5" value="2. Create/Edit Links" style="rounded=1;whiteSpace=wrap;html=1;" vertex="1" parent="WIyWlLk6GJQsqaUBKTNV-1">
          <mxGeometry x="240" y="200" width="160" height="40" as="geometry" />
        </mxCell>
        <mxCell id="N1oyZwq5Z6-K_-6cKd1b-8" value="3. Create/Edit Bundles" style="rounded=1;whiteSpace=wrap;html=1;" vertex="1" parent="WIyWlLk6GJQsqaUBKTNV-1">
          <mxGeometry x="240" y="240" width="160" height="40" as="geometry" />
        </mxCell>
        <mxCell id="N1oyZwq5Z6-K_-6cKd1b-9" value="4. Network Options " style="rounded=1;whiteSpace=wrap;html=1;" vertex="1" parent="WIyWlLk6GJQsqaUBKTNV-1">
          <mxGeometry x="240" y="280" width="160" height="40" as="geometry" />
        </mxCell>
      </root>
    </mxGraphModel>
  </diagram>
</mxfile>
